<!-- <svg width="40" height="40" viewBox="0 0 40 40" fill="none" xmlns="http://www.w3.org/2000/svg">
<rect width="40" height="40" rx="8" fill="#AF478A"/>
<path fill-rule="evenodd" clip-rule="evenodd" d="M23.8498 10.5007C24.4808 10.5007 25.1108 10.5897 25.7098 10.7907C29.4008 11.9907 30.7308 16.0407 29.6198 19.5807C28.9898 21.3897 27.9598 23.0407 26.6108 24.3897C24.6798 26.2597 22.5608 27.9197 20.2798 29.3497L20.0298 29.5007L19.7698 29.3397C17.4808 27.9197 15.3498 26.2597 13.4008 24.3797C12.0608 23.0307 11.0298 21.3897 10.3898 19.5807C9.25977 16.0407 10.5898 11.9907 14.3208 10.7697C14.6108 10.6697 14.9098 10.5997 15.2098 10.5607H15.3298C15.6108 10.5197 15.8898 10.5007 16.1698 10.5007H16.2798C16.9098 10.5197 17.5198 10.6297 18.1108 10.8307H18.1698C18.2098 10.8497 18.2398 10.8707 18.2598 10.8897C18.4808 10.9607 18.6898 11.0407 18.8898 11.1507L19.2698 11.3207C19.3616 11.3697 19.4647 11.4445 19.5537 11.5092C19.6102 11.5501 19.661 11.587 19.6998 11.6107C19.7161 11.6203 19.7327 11.63 19.7494 11.6398C19.8351 11.6898 19.9245 11.742 19.9998 11.7997C21.1108 10.9507 22.4598 10.4907 23.8498 10.5007ZM26.5098 17.7007C26.9198 17.6897 27.2698 17.3607 27.2998 16.9397V16.8207C27.3298 15.4197 26.4808 14.1507 25.1898 13.6607C24.7798 13.5197 24.3298 13.7407 24.1798 14.1607C24.0398 14.5807 24.2598 15.0407 24.6798 15.1897C25.3208 15.4297 25.7498 16.0607 25.7498 16.7597V16.7907C25.7308 17.0197 25.7998 17.2407 25.9398 17.4107C26.0798 17.5807 26.2898 17.6797 26.5098 17.7007Z" fill="white"/>
</svg> -->


<svg width="40" height="40" version="1.1" id="Capa_1" xmlns="http://www.w3.org/2000/svg" xmlns:xlink="http://www.w3.org/1999/xlink" x="0px" y="0px"
	 viewBox="0 0 235.517 235.517" style="enable-background:new 0 0 235.517 235.517;" xml:space="preserve">
<g>
	<path style="fill:#010002;" d="M118.1,235.517c7.898,0,14.31-6.032,14.31-13.483c0-7.441,0-13.473,0-13.473
		c39.069-3.579,64.932-24.215,64.932-57.785v-0.549c0-34.119-22.012-49.8-65.758-59.977V58.334c6.298,1.539,12.82,3.72,19.194,6.549
		c10.258,4.547,22.724,1.697,28.952-8.485c6.233-10.176,2.866-24.47-8.681-29.654c-11.498-5.156-24.117-8.708-38.095-10.236V8.251
		c0-4.552-6.402-8.251-14.305-8.251c-7.903,0-14.31,3.514-14.31,7.832c0,4.335,0,7.843,0,7.843
		c-42.104,3.03-65.764,25.591-65.764,58.057v0.555c0,34.114,22.561,49.256,66.862,59.427v33.021
		c-10.628-1.713-21.033-5.243-31.623-10.65c-11.281-5.755-25.101-3.72-31.938,6.385c-6.842,10.1-4.079,24.449,7.294,30.029
		c16.709,8.208,35.593,13.57,54.614,15.518v13.755C103.79,229.36,110.197,235.517,118.1,235.517z M131.301,138.12
		c14.316,4.123,18.438,8.257,18.438,15.681v0.555c0,7.979-5.776,12.651-18.438,14.033V138.12z M86.999,70.153v-0.549
		c0-7.152,5.232-12.657,18.71-13.755v29.719C90.856,81.439,86.999,77.305,86.999,70.153z"/>
</g>
<g>
</g>
<g>
</g>
<g>
</g>
<g>
</g>
<g>
</g>
<g>
</g>
<g>
</g>
<g>
</g>
<g>
</g>
<g>
</g>
<g>
</g>
<g>
</g>
<g>
</g>
<g>
</g>
<g>
</g>
</svg>
