<?xml version="1.0" standalone="no"?>
<!DOCTYPE svg PUBLIC "-//W3C//DTD SVG 20010904//EN"
 "http://www.w3.org/TR/2001/REC-SVG-20010904/DTD/svg10.dtd">
<svg version="1.0" xmlns="http://www.w3.org/2000/svg"
 width="1469.000000pt" height="1917.000000pt" viewBox="0 0 1469.000000 1917.000000"
 preserveAspectRatio="xMidYMid meet">

<g transform="translate(0.000000,1917.000000) scale(0.100000,-0.100000)"
fill="#000000" stroke="none">
<path d="M1255 19155 c-56 -21 -110 -67 -143 -123 -23 -41 -27 -58 -27 -127 0
-75 3 -88 57 -210 103 -235 174 -466 227 -730 57 -287 66 -388 66 -755 0 -351
-5 -424 -52 -690 -27 -161 -26 -225 6 -288 17 -34 102 -121 120 -122 3 -1 28
-7 55 -14 l48 -13 -67 -48 c-264 -188 -525 -435 -735 -695 -433 -538 -695
-1161 -787 -1875 -24 -190 -24 -673 0 -852 20 -156 32 -194 75 -244 32 -38
175 -139 285 -203 49 -29 60 -46 30 -46 -32 0 -123 -60 -152 -100 -87 -121
-65 -238 114 -605 203 -416 497 -808 824 -1101 l111 -99 -48 -11 c-26 -6 -59
-16 -74 -22 -46 -19 -104 -80 -129 -135 l-24 -52 -3 -2665 c-2 -1913 0 -2697
8 -2777 32 -316 164 -590 387 -804 241 -230 539 -351 868 -352 239 -1 406 43
655 170 3 2 3 -25 2 -59 -5 -75 8 -121 47 -176 48 -65 97 -87 297 -132 599
-133 1121 -332 1622 -617 193 -110 226 -118 332 -87 70 21 147 97 174 172 10
28 23 52 30 52 7 0 22 -29 35 -64 98 -279 356 -517 647 -599 l82 -23 -40 -33
c-57 -48 -88 -119 -88 -201 0 -90 21 -129 133 -251 185 -202 376 -441 513
-641 57 -82 136 -127 227 -128 26 0 47 -2 47 -4 0 -2 -9 -25 -21 -51 -14 -31
-21 -68 -21 -108 0 -58 6 -73 108 -275 121 -237 160 -289 241 -316 101 -34
199 -16 274 52 41 37 64 74 139 224 87 172 90 181 90 246 0 45 -7 81 -20 111
-11 24 -20 44 -20 45 0 0 15 1 33 2 55 1 123 24 160 55 20 16 80 93 135 172
163 233 309 415 501 623 119 129 146 183 138 277 -6 72 -49 151 -105 192 -22
17 -41 32 -41 35 -1 3 24 14 55 25 125 42 296 161 386 268 84 99 160 231 189
325 17 59 36 51 64 -26 42 -116 96 -175 188 -206 102 -34 143 -22 355 105 461
276 995 495 1517 620 116 28 229 58 253 66 59 20 126 91 147 154 17 49 22 149
9 170 -3 6 27 -6 68 -27 432 -217 928 -178 1322 104 104 76 258 239 325 346
102 164 166 347 190 541 15 125 16 5403 0 5474 -21 97 -100 175 -205 201 l-64
16 106 95 c420 373 807 949 976 1453 32 94 32 142 3 212 -29 70 -113 140 -189
158 -27 7 -24 10 70 68 215 132 262 178 283 280 22 99 41 365 41 557 -1 808
-254 1569 -734 2206 -227 302 -560 623 -846 817 -27 18 -28 17 46 37 90 24
164 103 185 197 11 49 10 69 -10 172 -89 468 -89 1002 0 1472 46 245 133 523
236 762 53 120 58 140 58 203 0 58 -5 79 -30 123 -53 97 -146 148 -255 140
-49 -3 -80 -15 -177 -66 -1274 -671 -2487 -1130 -3693 -1396 -1554 -343 -2983
-318 -4570 79 -1062 266 -2157 688 -3205 1237 -256 134 -273 141 -335 144 -41
2 -80 -2 -105 -11z m185 -317 c0 -5 5 -6 10 -3 6 4 10 -27 10 -86 0 -51 -2
-90 -4 -88 -3 3 -48 107 -94 218 -3 9 9 6 36 -9 23 -13 42 -28 42 -32z m2660
-2412 c582 -76 1105 -279 1579 -614 205 -145 464 -386 634 -591 380 -457 635
-999 740 -1573 l14 -77 -127 -148 c-144 -167 -426 -447 -575 -572 -779 -649
-1723 -1050 -2725 -1156 -80 -9 -253 -18 -385 -22 -712 -18 -1431 119 -2096
398 -240 101 -603 296 -799 429 l-57 38 -12 109 c-7 59 -15 194 -18 298 -24
806 236 1584 745 2225 107 134 426 449 562 554 535 414 1136 652 1810 716 140
13 563 4 710 -14z m7200 14 c799 -72 1537 -414 2105 -976 557 -551 884 -1214
992 -2010 22 -163 23 -675 2 -824 l-14 -95 -80 -53 c-432 -285 -1001 -534
-1515 -661 -1559 -385 -3183 -22 -4412 986 -219 179 -581 543 -712 716 l-29
38 12 72 c209 1208 1134 2258 2336 2650 244 80 452 125 698 151 150 17 462 19
617 6z m-4202 -3677 c-74 -1026 -649 -1990 -1538 -2580 -148 -98 -242 -151
-420 -237 -606 -292 -1272 -393 -1945 -295 -1081 156 -2018 821 -2538 1799
-49 94 -156 332 -171 385 -5 16 37 -1 207 -86 1297 -643 2826 -744 4192 -279
239 82 414 154 650 269 540 264 1012 593 1415 988 80 78 147 142 150 143 3 0
2 -48 -2 -107z m887 -259 c1293 -1108 3017 -1551 4695 -1209 485 99 1028 293
1449 519 55 30 101 50 101 44 0 -20 -91 -231 -155 -358 -402 -803 -1111 -1419
-1953 -1699 -373 -125 -693 -175 -1102 -175 -250 0 -371 9 -585 45 -1066 179
-1959 837 -2460 1813 -212 411 -331 832 -369 1305 l-6 73 132 -127 c73 -71
187 -174 253 -231z m-493 -1154 c177 -372 415 -715 710 -1025 l94 -98 -467
-809 c-257 -445 -470 -809 -475 -810 -4 0 -218 364 -474 809 l-467 808 71 75
c372 393 644 809 827 1262 l43 108 41 -103 c23 -56 66 -154 97 -217z m-6175
-5468 c-1 -741 -2 -132 -2 1353 0 1485 1 2091 2 1347 2 -745 2 -1960 0 -2700z
m510 2741 c-1 -142 -2 -26 -2 257 0 283 1 399 2 258 2 -142 2 -374 0 -515z
m3141 460 l-3 -88 -18 125 c-10 69 -21 142 -24 162 -5 33 -3 39 18 47 24 8 24
8 27 -75 1 -46 1 -123 0 -171z m7152 189 c0 -10 -39 -22 -152 -48 l-78 -18 -3
-350 -2 -351 -3 357 -2 357 38 10 c215 57 202 54 202 43z m-703 -3584 c-1
-634 -2 -116 -2 1152 0 1268 1 1786 2 1153 2 -634 2 -1672 0 -2305z m-7610
1630 c-1 -332 -2 -61 -2 602 0 663 1 934 2 603 2 -332 2 -874 0 -1205z m1851
-1489 l-3 -43 -17 63 -17 64 20 -20 c16 -15 20 -30 17 -64z m-1839 -501 c-1
-300 -5 -496 -10 -473 -12 59 -11 985 1 985 7 0 10 -177 9 -512z m2521 -1600
l-1 -53 -13 31 c-28 64 -29 74 -7 74 19 0 21 -6 21 -52z m-3090 -228 c0 -5 -8
-10 -17 -10 -15 0 -16 2 -3 10 19 12 20 12 20 0z m3787 -1542 c-3 -8 -6 -5 -6
6 -1 11 2 17 5 13 3 -3 4 -12 1 -19z"/>
</g>
</svg>
